<svg xmlns="http://www.w3.org/2000/svg" width="24" height="24" viewBox="0 0 24 24">
<path d="M12 1.9c5.57 0 10.1 4.53 10.1 10.1 0 5.57-4.53 10.1-10.1 10.1-5.57 0-10.1-4.53-10.1-10.1C1.9 6.43 6.43 1.9 12 1.9zm0 .97c-5.034 0-9.13 4.096-9.13 9.13 0 5.034 4.096 9.13 9.13 9.13 5.034 0 9.13-4.096 9.13-9.13 0-5.034-4.096-9.13-9.13-9.13zm3.119 5.326a.484.484 0 0 1 .783.54l-.042.077-.056.068L12.685 12l3.12 3.12c.141.142.177.35.106.525l-.045.084-.062.076a.483.483 0 0 1-.528.104l-.09-.048-.067-.056-3.12-3.119-3.118 3.12a.484.484 0 0 1-.158.105l-.09.027-.095.01a.483.483 0 0 1-.44-.683l.042-.077.056-.068L11.314 12 8.196 8.881a.484.484 0 0 1-.107-.525l.045-.084.062-.076a.483.483 0 0 1 .54-.098l.077.042.068.056L12 11.314l3.119-3.118z"/>
</svg>
