<svg xmlns="http://www.w3.org/2000/svg" width="24" height="24" viewBox="0 0 24 24">
<path d="M12 2c.534 0 .968.434.968.968v.967h.322c.534 0 .968.435.968.968a.955.955 0 0 1-.094.41 4.523 4.523 0 0 1 3.642 4.429 4.49 4.49 0 0 1-2.14 3.835c.327.455.567.965.707 1.51.639-.21 1.247-.243 1.756-.09v-.739A2.26 2.26 0 0 1 20.387 12h.323v1.613c0 .643-.267 1.22-.695 1.63A2.26 2.26 0 0 1 22 17.484v.323h-1.613c-.37 0-.728-.091-1.05-.26-.011.056-.02.11-.035.167-.234.888-.794 1.808-1.578 2.592-1.067 1.067-2.379 1.69-3.45 1.69-.25 0-.486-.037-.703-.107a6.852 6.852 0 0 1-1.248.112c-1.585 0-2.936-.516-3.65-1.295a4.506 4.506 0 0 1-4.415-4.498c0-1.13.42-2.21 1.184-3.043l.063-.069c-.17-.62-.332-1.266-.488-1.895C4.56 9.36 3.937 6.84 3.29 6.84H2v-.323c0-.89.724-1.613 1.613-1.613 1.434 0 2.243 1.839 2.956 3.46.333.757.674 1.527 1.025 1.972.137-.399.212-.82.212-1.251V5.87h-.322a.969.969 0 0 1 0-1.936h.322v-.967c0-.534.435-.968.968-.968zm.323 15.484c-1.924 0-3.549.886-3.549 1.935 0 1.05 1.625 1.936 3.549 1.936 1.923 0 3.548-.887 3.548-1.936s-1.625-1.935-3.548-1.935zm6.106-1.59c-.757-.758-2.568-.226-3.955 1.16l-.1.106c1.287.435 2.142 1.274 2.142 2.26 0 .602-.323 1.149-.866 1.584a5.835 5.835 0 0 0 1.618-1.155c.704-.705 1.205-1.522 1.41-2.3.19-.718.1-1.306-.25-1.655zM7.476 11.877a4.47 4.47 0 0 1-.208.25L5.918 13.6a3.847 3.847 0 0 0-1.015 2.607 3.86 3.86 0 0 0 3.342 3.819 1.704 1.704 0 0 1-.116-.607c0-1.447 1.842-2.58 4.194-2.58.475 0 .928.048 1.351.134a6.512 6.512 0 0 1 2.095-1.64 3.843 3.843 0 0 0-.912-1.733l-1.045-1.14c-.26.442-.994.83-2.78.83-.992 0-2.139-.633-3.15-1.191l-.406-.222zm4.847 6.252c1.369 0 2.164.456 2.443.651l-.37.528c-.18-.125-.855-.534-2.073-.534zm5.806-1.287c.002.164-.023.346-.075.543-.106.404-.319.84-.614 1.262l-.528-.37c.252-.36.43-.725.518-1.056.046-.175.055-.298.054-.371zM6.516 15.548a.969.969 0 0 1 0 1.936.969.969 0 0 1 0-1.936zm13.226.323H19.2c.142.277.212.6.216.957.28.212.617.333.971.333h.935a1.615 1.615 0 0 0-1.58-1.29zm-13.226.323a.323.323 0 1 0 0 .645.323.323 0 0 0 0-.645zm6.13-2.259a.969.969 0 0 1 0 1.936.969.969 0 0 1 0-1.936zm-4.194-.645a.969.969 0 0 1 0 1.936.969.969 0 0 1 0-1.936zm4.193 1.29a.323.323 0 1 0 0 .646.323.323 0 0 0 0-.645zm7.42-1.902c-.736.15-1.29.801-1.29 1.58v.936a1.606 1.606 0 0 0 1.29-1.581zM8.452 13.935a.323.323 0 1 0 0 .646.323.323 0 0 0 0-.646zm4.838-8.064h-.322v.664c.108-.011.216-.019.322-.019a3.23 3.23 0 0 1 3.226 3.226c0 1.2-.672 2.29-1.712 2.845l.447.488a3.85 3.85 0 0 0 1.91-3.333 3.875 3.875 0 0 0-3.87-3.871zm-2.258 5.484c-.518 0-1.16.239-1.875.695.66.33 1.323.595 1.875.595 1.667 0 2.258-.347 2.258-.645 0-.298-.591-.645-2.258-.645zm-7.42-5.807a.97.97 0 0 0-.912.646h.59c1.151 0 1.681 2.14 2.353 4.851.122.493.25.993.38 1.486l.77-.84c.199-.218.368-.458.51-.71-.498-.479-.885-1.358-1.325-2.357-.633-1.442-1.352-3.076-2.365-3.076zm12.259 4.194c0-1.529-1.335-2.761-2.903-2.557v1.899c0 .967.36 1.893 1.014 2.606l.363.396a2.58 2.58 0 0 0 1.526-2.344zM12.323 5.87H8.452v3.213c0 .8-.216 1.576-.611 2.257a68.616 68.616 0 0 1 .667.366c.948-.662 1.796-.997 2.524-.997.71 0 1.252.062 1.666.164a4.497 4.497 0 0 1-.375-1.79V5.87zm.967-1.29H7.484a.323.323 0 0 0 0 .645h5.806a.323.323 0 0 0 0-.645zM12 2.645H8.774a.323.323 0 0 0-.322.323v.967h3.87v-.967A.323.323 0 0 0 12 2.645z"/>
</svg>
