<svg xmlns="http://www.w3.org/2000/svg" width="24" height="24" viewBox="0 0 24 24">
<path d="M14.362 5a2.375 2.375 0 0 1 2.372 2.373v1.344c0 .82-.416 1.542-1.049 1.969.247.067.761.202 1.543.404 1.173.303 1.55.303 1.55.675v4.308l1.344.001H21v1.76a.352.352 0 0 1-.352.352H3.352A.352.352 0 0 1 3 17.835v-1.407c0-.194.157-.351.352-.351h1.617V15.9c0-.601.489-1.09 1.09-1.09h.035v-.668H3.352A.352.352 0 0 1 3 13.792V8.167c0-.195.157-.352.352-.352h2.39v.703H3.703v4.922h2.39v-1.758a1.056 1.056 0 0 1 2.11 0v1.758h2.39V8.518H8.556v-.703h2.39c.194 0 .352.157.352.352v2.909a2.1 2.1 0 0 1 .194-.053l1.545-.339a2.372 2.372 0 0 1-1.047-1.967V7.373A2.375 2.375 0 0 1 14.362 5zm5.935 11.78H3.703v.703h16.594v-.703zm-4.764-5.408l-.847 2.267a.352.352 0 0 1-.659 0l-.847-2.266-1.538.337a1.367 1.367 0 0 0-.345.126v1.956a.352.352 0 0 1-.352.351h-.38v1.934l7.468-.002V12l-2.5-.628zm-5.671 2.771H8.203v.668h.035c.601 0 1.09.489 1.09 1.09v.176h.534v-1.934zm-1.624 1.371h-2.18a.387.387 0 0 0-.386.387v.176h2.953V15.9a.387.387 0 0 0-.387-.387zm-1.09-4.183a.352.352 0 0 0-.351.351v3.13H7.5v-3.13a.352.352 0 0 0-.352-.351zm6.651-.309l.557 1.49.556-1.487a2.369 2.369 0 0 1-1.113-.003zm1.295-3.512a2.565 2.565 0 0 1-1.765.7h-.637v.508c0 .92.75 1.669 1.67 1.669.92 0 1.67-.749 1.67-1.67V8.06zm-7.946.305a.354.354 0 0 1 .352.352.354.354 0 0 1-.352.351.354.354 0 0 1-.351-.351.354.354 0 0 1 .351-.352zm7.214-2.112c-.92 0-1.67.75-1.67 1.67v.135h.637c.554 0 1.076-.244 1.432-.669.11-.132.3-.164.448-.077l.817.48a1.672 1.672 0 0 0-1.664-1.539z"/>
</svg>
