<svg xmlns="http://www.w3.org/2000/svg" width="24" height="24" viewBox="0 0 24 24">
<path d="M21.707 2c.162 0 .293.131.293.293v19.414a.293.293 0 0 1-.293.293H2.293A.293.293 0 0 1 2 21.707V2.293C2 2.131 2.131 2 2.293 2zm-.293.586H2.586v18.828h18.828V2.586zm-.879.586c.162 0 .293.131.293.293v17.07a.293.293 0 0 1-.293.293H3.465a.293.293 0 0 1-.293-.293V6.395a.293.293 0 0 1 .586 0v13.847h16.484V3.758H3.758v1.465a.293.293 0 0 1-.586 0V3.465c0-.162.131-.293.293-.293zM12 6.414a3.011 3.011 0 0 1 3.008 3.008v.644A2.98 2.98 0 0 1 14.303 12a2.98 2.98 0 0 1 .705 1.934v.644A3.011 3.011 0 0 1 12 17.586a3.011 3.011 0 0 1-3.008-3.008 1.075 1.075 0 0 1 2.149 0 .86.86 0 0 0 1.718 0v-.644a.86.86 0 0 0-.859-.86 1.075 1.075 0 0 1 0-2.148.86.86 0 0 0 .86-.86v-.644a.86.86 0 0 0-1.72 0 1.075 1.075 0 0 1-2.148 0A3.011 3.011 0 0 1 12 6.414zM12 7a2.425 2.425 0 0 0-2.422 2.422.489.489 0 0 0 .977 0c0-.797.648-1.445 1.445-1.445s1.445.648 1.445 1.445v.644c0 .797-.648 1.446-1.445 1.446a.489.489 0 0 0 0 .976c.797 0 1.445.649 1.445 1.446v.644c0 .797-.648 1.445-1.445 1.445a1.447 1.447 0 0 1-1.445-1.445.489.489 0 0 0-.977 0A2.425 2.425 0 0 0 12 17a2.425 2.425 0 0 0 2.422-2.422v-.644c0-.653-.257-1.266-.724-1.725a.293.293 0 0 1 0-.418c.467-.46.724-1.072.724-1.725v-.644A2.425 2.425 0 0 0 12 7z"/>
</svg>
