<svg xmlns="http://www.w3.org/2000/svg" width="24" height="24" viewBox="0 0 24 24">
<path d="M7.806 2c.833 0 1.556.528 1.823 1.294a1.909 1.909 0 0 1 1.62.722c.594.172 1.076.62 1.284 1.213a1.937 1.937 0 0 1 2.048 1.932c0 .41-.128.802-.365 1.13a1.92 1.92 0 0 1 .334 1.454c.031.027.061.055.09.084.055-.045.107-.095.165-.138a1.38 1.38 0 0 1 .569-.242l-.143-1.571a1.25 1.25 0 0 1 1.243-1.362h.084a1.25 1.25 0 0 1 1.244 1.361l-.143 1.565c.221.033.436.114.615.251.048.037.09.08.138.12a1.358 1.358 0 0 1 1.766-.127A4.482 4.482 0 0 1 22 13.274v.678a4.461 4.461 0 0 1-1.046 2.854A1.81 1.81 0 0 1 22 18.452c0 .908-.652 1.667-1.549 1.805L9.389 21.96c-.178.027-.36.041-.539.041h-.076a3.546 3.546 0 0 1-3.016-1.688l-1.69.376a.905.905 0 0 1-1.1-.882v-.128c0-.09.017-.176.042-.259h-.042a.969.969 0 0 1 0-1.935h.042a.894.894 0 0 1-.042-.259v-.128a.905.905 0 0 1 1.1-.882l1.69.376c.24-.387.551-.724.917-.994L5.96 13.6a1.939 1.939 0 0 1-1.703-1.922c0-.149.019-.3.056-.45a1.92 1.92 0 0 1-.54-2.257A2.566 2.566 0 0 1 2.645 6.84c0-1.078.682-2.045 1.68-2.417A1.944 1.944 0 0 1 6.13 2.969 1.933 1.933 0 0 1 7.806 2zM8.85 15.548h-.076a2.907 2.907 0 0 0-2.903 2.904c0 1.6 1.303 2.903 2.903 2.903h.076c.147 0 .295-.011.442-.034l11.061-1.702c.58-.089 1.002-.58 1.002-1.167 0-.588-.421-1.079-1.002-1.168L9.292 15.582a2.944 2.944 0 0 0-.442-.034zm5.408 1.29v3.227h-.645v-3.226h.645zm-2.58 0v3.227h-.646v-3.226h.645zm-2.581 0v3.227h-.645v-3.226h.645zM5.363 19.42H3.872a.26.26 0 0 0-.26.26v.127c0 .161.163.285.315.252l1.536-.34a3.58 3.58 0 0 1-.1-.299zm11.476-1.935v1.935h-.645v-1.935h.645zm2.58.322v1.29h-.645v-1.29h.645zm-14.177.323H2.968a.323.323 0 0 0 0 .645h2.274a3.552 3.552 0 0 1-.016-.322c0-.11.007-.217.016-.323zm-1.314-1.284a.263.263 0 0 0-.315.252v.128a.26.26 0 0 0 .259.259h1.492c.028-.101.062-.2.1-.298zm15.439-6.78a.713.713 0 0 0-.49.196 4.628 4.628 0 0 1 1.188 3.082v1.185c0 .692-.157 1.37-.451 1.99l.64.098a3.819 3.819 0 0 0 1.1-2.664v-.678c0-1.2-.582-2.348-1.559-3.069a.723.723 0 0 0-.428-.14zm-1.766.016l-.047.522c.364.177.575.447.575.752 0 .551-.693.968-1.613.968-.083 0-.161-.008-.24-.014-.05.322-.082.646-.082.972v1.31c0 .48.057.957.163 1.425l2.587.399c.31-.578.475-1.226.475-1.887v-1.185a3.966 3.966 0 0 0-1.537-3.137.676.676 0 0 0-.281-.125zm-2.169.01a.721.721 0 0 0-.242.117 3.93 3.93 0 0 0-1.577 3.135v1.185c0 .37.055.736.159 1.09l1.902.293a7.089 7.089 0 0 1-.126-1.32v-1.31c0-.37.038-.74.096-1.106-.45-.168-.74-.465-.74-.82 0-.305.21-.575.575-.752zm-1.767-.026a.727.727 0 0 0-.428.14 3.836 3.836 0 0 0-1.56 3.069v.678c0 .478.094.943.27 1.386l1.132.174a4.518 4.518 0 0 1-.111-.984v-1.185a4.57 4.57 0 0 1 1.203-3.069.713.713 0 0 0-.506-.21zm-5.859-7.42c-.517 0-.983.308-1.186.785l-.092.214-.232-.02a1.44 1.44 0 0 1-.066-.007c-.012-.002-.024-.004-.036-.004-.632 0-1.179.474-1.27 1.103l-.03.206-.201.057A1.943 1.943 0 0 0 3.29 6.84c0 .731.407 1.392 1.061 1.725l.324.164-.201.302a1.283 1.283 0 0 0 .389 1.8l.223.142-.094.247a1.286 1.286 0 0 0-.089.458c0 .712.579 1.29 1.29 1.29h.228l.818 2.29c.176-.085.36-.157.552-.212a1.941 1.941 0 0 1-.63-1.432c0-.15.019-.3.056-.45a1.92 1.92 0 0 1-.54-2.257 2.566 2.566 0 0 1-1.129-2.132c0-1.078.682-2.044 1.68-2.417a1.944 1.944 0 0 1 1.805-1.453c.25-.435.659-.75 1.133-.889a1.282 1.282 0 0 0-.424-.08c-.09 0-.181.011-.281.034l-.33.073-.058-.332a1.286 1.286 0 0 0-1.267-1.065zm2.904 1.936a1.29 1.29 0 0 0-1.187.784l-.091.214L9.2 5.56a.964.964 0 0 1-.068-.007c-.012-.002-.023-.005-.035-.005-.632 0-1.178.475-1.27 1.103l-.03.206-.2.058a1.943 1.943 0 0 0-1.403 1.86c0 .73.406 1.391 1.06 1.724l.324.164-.201.302a1.283 1.283 0 0 0 .389 1.801l.223.141-.094.247a1.292 1.292 0 0 0-.089.46c0 .716.58 1.299 1.29 1.299.099.007.197.017.293.032l1.835.282a4.402 4.402 0 0 1-.192-1.275v-.678c0-.198.017-.394.043-.589-.85-.675-2.286-.685-2.3-.685v-.645c.06 0 1.23.008 2.21.51a20.615 20.615 0 0 0-.645-1.817c-.642-.655-2.016-.679-2.502-.63l-.064-.642c.063-.007 1.16-.107 2.124.256a18.986 18.986 0 0 0-1.073-2.019l.543-.349c.04.063.674 1.06 1.346 2.602.49-1.286 1.362-1.998 1.407-2.034l.404.503c-.012.01-1.119.922-1.417 2.498.132.346.26.71.383 1.091a4.497 4.497 0 0 1 1.363-1.638c.232-.172.52-.267.811-.267.092 0 .181.012.269.03l.001-.03c0-.339-.131-.66-.37-.903l-.222-.226.222-.226a1.292 1.292 0 0 0-.92-2.193c-.089 0-.18.01-.28.033l-.33.073-.059-.332a1.286 1.286 0 0 0-1.266-1.064zm5.848 2.58h-.084a.604.604 0 0 0-.6.658l.292 3.222-.246.079c-.283.09-.372.21-.372.235 0 .08.344.322.968.322.625 0 .968-.242.968-.322 0-.026-.09-.145-.372-.235l-.246-.079.293-3.222a.604.604 0 0 0-.6-.658z"/>
</svg>
