<svg xmlns="http://www.w3.org/2000/svg" width="24" height="24" viewBox="0 0 24 24">
<path d="M8.488 9a.66.66 0 0 1 .49.218l.06.075.053.092.56 1.166.001.01.014.008.483.07.416.093.254.068c.416.122.59.22.648.4a.747.747 0 0 1-.043.547l-.057.098-.068.083-.905.929v.016l.221 1.294a.7.7 0 0 1-.261.677.655.655 0 0 1-.51.128l-.107-.027-.097-.043-1.111-.6-.017-.004-1.114.618a.658.658 0 0 1-.715-.048.694.694 0 0 1-.272-.471l-.006-.096.009-.107.208-1.306-.008-.013-.91-.911a.705.705 0 0 1 .188-1.127l.09-.035.09-.02 1.237-.194.007.002.013-.015.552-1.182a.672.672 0 0 1 .51-.386L8.488 9zm6.5 0a.66.66 0 0 1 .49.218l.06.075.053.092.56 1.166.001.01.014.008.483.07.416.093.254.068c.416.122.59.22.648.4a.747.747 0 0 1-.043.547l-.057.098-.068.083-.905.929v.016l.221 1.294a.7.7 0 0 1-.261.677.655.655 0 0 1-.51.128l-.107-.027-.097-.043-1.111-.6-.017-.004-1.114.618a.658.658 0 0 1-.715-.048.694.694 0 0 1-.272-.471l-.006-.096.009-.107.208-1.306-.008-.013-.91-.911a.705.705 0 0 1 .188-1.127l.09-.035.09-.02 1.237-.194.007.002.013-.015.552-1.182a.672.672 0 0 1 .51-.386L14.988 9zm-6.503.673l-.007.01-.552 1.182a.683.683 0 0 1-.299.315l-.102.044-.103.025-1.25.197-.005.003-.007.019.008.016.91.912c.104.104.172.24.194.388l.009.113-.009.108-.206 1.297v.013l.01.012 1.12-.62a.655.655 0 0 1 .425-.075l.108.027.099.043 1.125.607.009-.007.002-.019-.221-1.294a.71.71 0 0 1 .062-.433l.057-.096.069-.083.869-.891-.115-.036-.188-.05-.275-.06-.168-.034-.48-.07a.665.665 0 0 1-.384-.198l-.072-.087-.054-.094-.57-1.182-.009-.002zm6.5 0l-.007.01-.552 1.182a.683.683 0 0 1-.299.315l-.102.044-.103.025-1.25.197-.005.003-.007.019.008.016.91.912c.104.104.172.24.194.388l.009.113-.009.108-.206 1.297v.013l.01.012 1.12-.62a.655.655 0 0 1 .425-.075l.108.027.099.043 1.125.607.009-.007.002-.019-.221-1.294a.71.71 0 0 1 .062-.433l.057-.096.069-.083.869-.891-.115-.036-.188-.05-.275-.06-.168-.034-.48-.07a.665.665 0 0 1-.384-.198l-.072-.087-.054-.094-.57-1.182-.009-.002z"/>
</svg>
