<svg xmlns="http://www.w3.org/2000/svg" width="24" height="24" viewBox="0 0 24 24">
<path d="M12 1.9c5.57 0 10.1 4.53 10.1 10.1 0 5.57-4.53 10.1-10.1 10.1-5.57 0-10.1-4.53-10.1-10.1C1.9 6.43 6.43 1.9 12 1.9zm0 .77c-5.145 0-9.33 4.185-9.33 9.33 0 5.145 4.185 9.33 9.33 9.33 5.145 0 9.33-4.185 9.33-9.33 0-5.145-4.185-9.33-9.33-9.33zm4.638 5.162a.484.484 0 0 1 .814.494l-.038.079-.052.07L11.21 15.4a.484.484 0 0 1-.507.14l-.074-.03-.085-.054-3.846-3.077a.485.485 0 0 1 .451-.838l.081.033.073.049 3.487 2.789 5.849-6.579z"/>
</svg>
