<svg xmlns="http://www.w3.org/2000/svg" width="24" height="24" viewBox="0 0 24 24">
<path d="M12.002 2c1.053 0 1.941.705 2.218 1.669.102.354.375.626.729.728.36.104.68.297.944.549l.127.13h2.136c.803 0 1.462.615 1.532 1.4l.007.14V20.46c0 .803-.615 1.462-1.399 1.533l-.14.006H5.848A1.539 1.539 0 0 1 4.316 20.6l-.006-.14V6.615c0-.802.614-1.461 1.398-1.532l.14-.006h2.136c.285-.316.65-.558 1.07-.68a1.06 1.06 0 0 0 .73-.728A2.309 2.309 0 0 1 12.002 2zM7.52 5.846h-1.67a.77.77 0 0 0-.763.665l-.007.104v13.846c0 .39.29.712.665.763l.104.007h12.308a.77.77 0 0 0 .762-.665l.007-.105V6.615a.77.77 0 0 0-.665-.762l-.104-.007h-1.671c.064.18.107.371.124.57l.009.2v1.538H7.387V6.597a2.3 2.3 0 0 1 .132-.75zm9.099 11.539v.769H9.695v-.77h6.923zm-8.846 0a.385.385 0 1 1 0 .769.385.385 0 0 1 0-.77zm8.846-2.308v.77H9.695v-.77h6.923zm-8.846 0a.385.385 0 1 1 0 .77.385.385 0 0 1 0-.77zm8.846-2.308v.77H9.695v-.77h6.923zm-8.846 0a.385.385 0 1 1 0 .77.385.385 0 0 1 0-.77zm8.846-2.307v.769H9.695v-.77h6.923zm-8.846 0a.385.385 0 1 1 0 .769.385.385 0 0 1 0-.77zm4.23-7.693c-.682 0-1.29.457-1.478 1.112a1.825 1.825 0 0 1-1.257 1.256 1.548 1.548 0 0 0-1.103 1.322l-.008.144v.782h7.692v-.77c0-.682-.457-1.29-1.112-1.478a1.823 1.823 0 0 1-1.255-1.256 1.545 1.545 0 0 0-1.479-1.112zm.012.962a.577.577 0 1 1 0 1.154.577.577 0 0 1 0-1.154z"/>
</svg>
