<svg xmlns="http://www.w3.org/2000/svg" width="24" height="24" viewBox="0 0 24 24">
    <path d="M21.753 21.278v.759h-3.266v-.759h3.266zm-3.86 0v.759h-.799v-.759h.8zM13.516 2.071l.692.296L13.22 5l-.026.055-.034.05-1.315 1.644-5.186 7.438v.855l.295 2.145.912.908a.38.38 0 0 1-.038.57l-.061.037-.547.27h1.035v.76H2v-.76h4.207L4.58 18.74a.38.38 0 0 1-.233-.13l-.04-.056-2.304-3.95a.38.38 0 0 1 .053-.451l.064-.054 1.89-1.256 1.91-3.515 1.317-3.926a.399.399 0 0 1 .112-.163l.054-.04 1.512-.89.67-2.213.694.24L9.62 4.64a.38.38 0 0 1-.112.18l-.058.043-1.52.898-1.286 3.859-.017.038-1.972 3.586-.276.763.433.686 1.089.05v-.659a.38.38 0 0 1 .03-.149l.038-.067 5.27-7.574 1.289-1.61.988-2.614zM3.603 14.014l-.79.478 2.032 3.53 2.01.301.14-.018-.659-.658a.38.38 0 0 1-.086-.137l-.02-.08-.237-1.978h-1.36a.38.38 0 0 1-.267-.112l-.047-.058-.658-.987a.38.38 0 0 1-.061-.263l.003-.018zM18.207 1.948l.523.555-.629.624-2.943 4.58-.037.047-.043.043-1.505 1.18-.015.658.713.744.981-.232.61-.909.025-.03 5.668-5.597.467.538-5.567 5.566-.556.804.632 2.774.621 1.28a.38.38 0 0 1-.018.377l-.05.063-.659.659-.013.009h.074v.76h-5.317v-.76h4.715l-1.567-.94a.38.38 0 0 1-.084-.068l-.034-.042-2.963-4.28a.38.38 0 0 1 .017-.453l.059-.059 3.239-2.589 2.955-4.595.027-.032.674-.675zm-5.393 7.654l-.781.587 2.734 3.936 1.301.827.3-.252-.552-1.109-.012-.042-.006-.039-.522-2.596-.985.247a.38.38 0 0 1-.315-.046l-.064-.052-.988-.988a.38.38 0 0 1-.103-.195l-.007-.074v-.204z"/>
</svg>
