<svg xmlns="http://www.w3.org/2000/svg" width="24" height="24" viewBox="0 0 24 24">
<path d="M21.707 2c.162 0 .293.131.293.293v19.414a.293.293 0 0 1-.293.293H2.293A.293.293 0 0 1 2 21.707V2.293C2 2.131 2.131 2 2.293 2zm-.293.586H2.586v18.828h18.828V2.586zm-.879.586c.162 0 .293.131.293.293v17.07a.293.293 0 0 1-.293.293H3.465a.293.293 0 0 1-.293-.293V6.395a.293.293 0 1 1 .586 0v13.847h16.484V3.758H3.758v1.465a.293.293 0 1 1-.586 0V3.465c0-.162.131-.293.293-.293zm-6.601 3.242a1.075 1.075 0 0 1 0 2.149h-2.032l-.507 2.363H12a3.011 3.011 0 0 1 3.008 3.008v.644A3.011 3.011 0 0 1 12 17.586a3.011 3.011 0 0 1-3.008-3.008 1.075 1.075 0 0 1 2.149 0 .86.86 0 0 0 1.718 0v-.644a.86.86 0 0 0-.859-.86h-1.934a1.07 1.07 0 0 1-.835-.399 1.07 1.07 0 0 1-.215-.9l.967-4.512a1.08 1.08 0 0 1 1.05-.849zm0 .586h-2.9a.49.49 0 0 0-.478.386l-.967 4.512a.486.486 0 0 0 .477.59H12c.797 0 1.445.649 1.445 1.446v.644c0 .797-.648 1.445-1.445 1.445a1.447 1.447 0 0 1-1.445-1.445.489.489 0 0 0-.977 0A2.425 2.425 0 0 0 12 17a2.425 2.425 0 0 0 2.422-2.422v-.644A2.425 2.425 0 0 0 12 11.512h-.967a.293.293 0 0 1-.287-.355l.632-2.949a.293.293 0 0 1 .287-.231h2.269a.489.489 0 0 0 0-.977z"/>
</svg>
