<svg xmlns="http://www.w3.org/2000/svg" width="24" height="24" viewBox="0 0 24 24">
<path d="M19.501 13.308c-.072-.03-.141-.05-.212-.075V4.917C19.289 3.307 18.01 2 16.442 2H5.347C3.777 2 2.5 3.31 2.5 4.917V16.29c0 1.61 1.277 2.918 2.847 2.918h6.868c.857 1.51 2.19 2.792 3.398 2.792.219 0 .427-.042.622-.124.055-.024.111-.052.167-.087a1.564 1.564 0 0 0 .79.21c1.567.001 3.344-2.152 4.02-4.162.712-2.113.089-3.765-1.71-4.529zM5.346 18.485c-1.18 0-2.14-.985-2.14-2.194V4.918c0-1.21.96-2.193 2.14-2.193h11.096c1.18 0 2.14.984 2.14 2.193v8.138c-.68-.086-1.304.074-1.827.469v-2.968c0-.199-.158-.362-.353-.362a.36.36 0 0 0-.354.362v.706a1.705 1.705 0 0 0-.433-.371 1.827 1.827 0 0 0-.93-.23c-.468 0-.855.14-.871.145a.362.362 0 0 0-.227.413c.008.045.224 1.089 1.003 1.54.263.153.575.23.928.23.202 0 .382-.028.53-.058v.59c-.75-.568-1.715-.651-2.747-.215-1.798.764-2.421 2.416-1.71 4.529.074.215.16.431.256.647l-6.501.002zm10.473-6.243c-.282.044-.655.02-.884-.112-.28-.162-.453-.475-.55-.72.282-.043.654-.02.884.113.28.162.453.475.55.719zm4.724 5.359c-.72 2.14-2.647 4.053-3.7 3.606a.96.96 0 0 1-.221-.142.346.346 0 0 0-.22-.076.358.358 0 0 0-.22.076.948.948 0 0 1-.22.142c-.869.37-2.317-.855-3.208-2.49-.006-.015-.015-.03-.022-.044a6.989 6.989 0 0 1-.47-1.074c-.747-2.216.3-3.193 1.311-3.623 1.048-.444 1.93-.231 2.542.642.006.007.012.009.017.015.065.082.16.137.27.137.11 0 .206-.055.27-.137.006-.006.013-.008.017-.015.524-.747 1.246-1.006 2.097-.79a.343.343 0 0 0 .103.028c.11.034.225.072.342.12 1.011.432 2.06 1.408 1.312 3.625zm-4.62-10c0-1.575-1.11-2.854-2.473-2.854H8.34c-1.363 0-2.472 1.28-2.472 2.854 0 1.573 1.109 2.854 2.472 2.854h5.111c1.363 0 2.473-1.28 2.473-2.854zm-9.35 0c0-1.175.793-2.13 1.766-2.13h5.111c.974 0 1.766.955 1.766 2.13 0 1.174-.792 2.13-1.766 2.13h-2.202V6.64c0-.2-.158-.362-.353-.362a.358.358 0 0 0-.354.363V9.73H8.338c-.974 0-1.765-.955-1.765-2.13z"/>
</svg>
