<svg xmlns="http://www.w3.org/2000/svg" width="24" height="24" viewBox="0 0 24 24">
<path d="M3.361 20.281a.36.36 0 0 1 0 .719.36.36 0 0 1-.361-.36.36.36 0 0 1 .361-.359zM14.576 3c.738 0 1.443.3 1.954.828.465.481.732 1.114.754 1.775v.2l-.178 4.415a7.411 7.411 0 0 1 1.225 6.39l-.08.274 1.22.505c.518.214.87.695.92 1.244l.007.138v1.297c-.001.069-.01.136-.026.202l-.03.098H21v.599H4.132v-.6h2.035a7.45 7.45 0 0 1-1.311-9.93l.156-.217-.177-4.416a2.685 2.685 0 0 1 .754-1.974 2.717 2.717 0 0 1 1.754-.82l.2-.008h7.033zm0 .599H7.543c-.573 0-1.122.233-1.52.644A2.09 2.09 0 0 0 5.44 5.59l-.001.19.18 4.522a.298.298 0 0 1-.061.194 6.796 6.796 0 0 0-1.425 4.182 6.863 6.863 0 0 0 2.8 5.531l.224.158h6.39l-6.394-5.339a.896.896 0 0 1-.14-1.229l.082-.094.44-.436 3.614-3.593c.1-.1.255-.115.372-.043l.054.043.904.898a.299.299 0 0 1 .088.212 2.404 2.404 0 0 0 2.245 2.39l.165.005h.753c.115 0 .218.065.268.164l.024.063.716 2.848.956.396a6.818 6.818 0 0 0-1.13-6.156.3.3 0 0 1-.056-.125l-.005-.069.18-4.523a2.089 2.089 0 0 0-.585-1.535 2.115 2.115 0 0 0-1.52-.644zm-6.81 10.286l-.246.243a.298.298 0 0 0-.024.396l.044.045 6.943 5.797h5.01a.301.301 0 0 0 .294-.23l.008-.07v-.299h-4.82a.303.303 0 0 1-.133-.032l-.059-.037-7.018-5.813zm10.355 3.592l-.062.124a1.755 1.755 0 0 1-1.577.968c-.377 0-.726.181-.941.481l-.074.118h4.328v-.399a.895.895 0 0 0-.448-.775l-.108-.053-1.118-.464zm-6.76-7.167l-1.395 1.386c.637.75.91 1.736.756 2.698l-.04.206-.173.778 4.367 3.617.029-.056a1.755 1.755 0 0 1 1.577-.968c.396.001.762-.2.973-.525l.065-.113.044-.087-1.198-.496a.3.3 0 0 1-.152-.138l-.025-.066-.093-.372h-2.024v-.599h1.873l-.15-.599H13.77v-.598h1.873l-.15-.6h-.518a3.01 3.01 0 0 1-2.997-2.69l-.013-.177-.605-.601zm-5.205 7.445c.2 0 .362.16.362.359a.36.36 0 0 1-.362.36.36.36 0 0 1-.361-.36.36.36 0 0 1 .361-.36zm-.746-5.907l.537.27a5.6 5.6 0 0 0-.61 2.56 5.6 5.6 0 0 0 .483 2.292l.127.267-.537.27c-.9-1.78-.9-3.879 0-5.66zm12.825-2.124a8.596 8.596 0 0 1 1.538 5.574l-.028.309-.598-.063a8.12 8.12 0 0 0 .046-.867 7.999 7.999 0 0 0-1.269-4.337l-.183-.274.494-.342zM9.54 12.119l-1.348 1.34 1.796 1.488.108-.478a2.756 2.756 0 0 0-.556-2.35zm4.756-7.622c.415 0 .812.171 1.097.472.285.301.432.706.406 1.119l-.177 2.805a.302.302 0 0 1-.478.223A6.904 6.904 0 0 0 11.06 7.79a6.904 6.904 0 0 0-4.084 1.324.302.302 0 0 1-.479-.222l-.176-2.805c-.026-.413.12-.818.405-1.119a1.51 1.51 0 0 1 1.098-.472zm0 .599H7.824a.899.899 0 0 0-.902.954l.144 2.282a7.569 7.569 0 0 1 7.988 0l.143-2.282a.895.895 0 0 0-.243-.67.906.906 0 0 0-.658-.284z"/>
</svg>
