<svg xmlns="http://www.w3.org/2000/svg" width="24" height="24" viewBox="0 0 24 24">
<path d="M17.52 3l.569.227a19.21 19.21 0 0 0-.95 3.968c-.057.384-.106.8-.145 1.237-.073.752-.11 1.54-.11 2.341h2.758c.17 0 .307.137.307.307v1.838c0 .17-.138.306-.307.306h-2.58c.111.84.274 1.747.495 2.71a38.659 38.659 0 0 0 1.452 4.84v-.001l-.572.222a38.859 38.859 0 0 1-1.089-3.384c-1.733.56-3.544.838-5.365.822a16.958 16.958 0 0 1-5.366-.822 38.594 38.594 0 0 1-1.09 3.384l-.57-.222a38.638 38.638 0 0 0 1.451-4.84c.22-.962.384-1.869.494-2.709H4.323a.306.306 0 0 1-.306-.306V11.08c0-.17.137-.307.306-.307H7.08c0-.802-.036-1.589-.108-2.339a22.39 22.39 0 0 0-.146-1.238 19.226 19.226 0 0 0-.95-3.969L6.447 3c.477 1.33.808 2.707.987 4.108.057.393.108.82.149 1.27.074.767.111 1.574.111 2.395h.613v-.612a.306.306 0 0 1 .49-.246l2.451 1.839a.307.307 0 0 1 0 .49l-2.45 1.838a.306.306 0 0 1-.491-.245v-.613H7.52a29.647 29.647 0 0 1-.457 2.58c1.584.539 3.247.806 4.92.79a14.837 14.837 0 0 0 4.919-.79 29.34 29.34 0 0 1-.457-2.58h-.786v.613a.306.306 0 0 1-.49.245l-2.451-1.838a.306.306 0 0 1 0-.49l2.45-1.839a.306.306 0 0 1 .491.246v.612h.613c0-.821.037-1.628.112-2.399.04-.446.09-.874.149-1.268.178-1.4.51-2.778.986-4.106zM4.281 19.807a.4.4 0 1 1 0 .8.4.4 0 0 1 0-.8zm1.1-4.805l.601.12a36.052 36.052 0 0 1-.506 2.172 42.694 42.694 0 0 1-.44 1.535l-.586-.18c.155-.504.3-1.013.434-1.512a34.127 34.127 0 0 0 .498-2.135zm1.544 1.408c-.01.045-.022.087-.033.132l-.083.337-.036.143c1.682.546 3.44.816 5.209.798a16.333 16.333 0 0 0 5.209-.797l-.035-.141a43.985 43.985 0 0 1-.085-.342l-.032-.13c-1.63.544-3.34.813-5.057.797a15.537 15.537 0 0 1-5.057-.797zm5.08-2.429a.4.4 0 1 1 0 .8.4.4 0 0 1 0-.8zM8.92 10.773v.307c0 .169-.137.306-.307.306H4.63v1.226h3.983c.17 0 .307.137.307.306v.306L10.553 12l-1.634-1.226zm6.127 0L13.412 12l1.634 1.225v-.306c0-.17.138-.306.307-.306h3.983v-1.226h-3.983a.306.306 0 0 1-.307-.306v-.307zm3.297-6.515l.59.163a22.494 22.494 0 0 0-.569 2.774c-.056.384-.105.8-.145 1.237-.016.174-.031.348-.044.525l-.611-.044c.013-.183.028-.362.045-.537.04-.447.09-.874.15-1.269.134-.961.33-1.913.584-2.85z"/>
</svg>
