<svg xmlns="http://www.w3.org/2000/svg" width="24" height="24" viewBox="0 0 24 24">
<path d="M12.194 6.096H8.4l-.016-.02-.002-.002-.238-.303a1.368 1.368 0 0 0-1.895-.265 1.326 1.326 0 0 0-.452.59h-.338V3.278A.28.28 0 0 0 5.176 3H3.282A.28.28 0 0 0 3 3.278V4.44h.564v-.885h1.33v5.637h-1.33V5.735H3V9.47a.28.28 0 0 0 .282.277h1.894a.28.28 0 0 0 .282-.277V6.65h.251c.016.255.105.504.263.714l3.232 4.721.004.006c.249.363.98 1.528.912 2.538a2.567 2.567 0 0 0-.984-.195h-.183a1.51 1.51 0 0 0-1.132.508c-.285.323-.413.75-.353 1.173l.456 3.188c-.554.15-.963.65-.963 1.243v.175a.28.28 0 0 0 .282.278h3.387c.051 0 .102-.01.146-.036a.277.277 0 0 0 .14-.284l-.188-1.188-.263-1.66a10.16 10.16 0 0 0 4.07 0l-.263 1.66-.188 1.188a.277.277 0 0 0 .14.284.296.296 0 0 0 .145.036h3.388a.28.28 0 0 0 .282-.278v-.175c0-.593-.409-1.093-.963-1.243l.151-1.057-.557-.087-.157 1.097H14.88l.462-2.908s-.55-.086-.558-.086l-.155.98a9.498 9.498 0 0 1-.68.129 1.904 1.904 0 0 1 .37-1.643 1.967 1.967 0 0 1 1.545-.738h.166c.198 0 .393.054.555.167a.914.914 0 0 1 .388.881l-.166 1.157.56.077.165-1.157c.06-.423-.069-.85-.353-1.173a1.51 1.51 0 0 0-1.132-.508h-.183c-.345 0-.678.068-.985.195-.069-1.01.664-2.175.912-2.538l3.237-4.727c.158-.21.247-.459.262-.714h.251V9.47a.28.28 0 0 0 .283.277h1.894A.28.28 0 0 0 22 9.47V3.278A.28.28 0 0 0 21.718 3h-1.894a.28.28 0 0 0-.283.278v2.818h-.338a1.358 1.358 0 0 0-1.263-.857c-.424 0-.83.199-1.084.532l-.238.303-.017.022h-2.115m.306 13.717h1.94a.743.743 0 0 1 .735.632h-2.775l.1-.632zm.292-11.789a2.67 2.67 0 0 0-.999-1.373h2.08l-1.08 1.373zM12.5 6.7c1.153 0 2.095.902 2.136 2.027a1.706 1.706 0 0 0-.474-.464c-.548-.36-1.21-.354-1.592-.197-.494.203-1.494.076-1.974-.219A2.144 2.144 0 0 1 12.5 6.7zm0 4.208c-1.18 0-2.138-.944-2.138-2.104 0-.146.015-.288.044-.425.69.363 1.796.44 2.38.2.257-.105.705-.089 1.063.146.329.216.517.575.55 1.044a2.144 2.144 0 0 1-1.899 1.139zm.6.488v.118c0 .326-.269.591-.6.591a.597.597 0 0 1-.601-.591v-.118a2.743 2.743 0 0 0 1.202 0zm-3.184-3.37L8.836 6.65h2.079a2.67 2.67 0 0 0-1 1.373zm-.048 4.052a7.396 7.396 0 0 0-.192-.295l-3.24-4.733a.769.769 0 0 1 .15-1.1.792.792 0 0 1 .473-.155c.252 0 .483.114.634.312l.003.004.217.276c.02.051.066.185.06.339-.007.255-.152.476-.432.584-.008.003.25.498.25.498.424-.126.588-.45.679-.713l1.328 1.688v.021a2.608 2.608 0 0 0 .164.917c.12.368.424 1.527-.094 2.357zm-2.335 8.368c.05-.356.36-.63.735-.632h1.94l.1.632H7.533zm3.517-3.074a9.522 9.522 0 0 1-.679-.128l-.155-.98c-.008 0-.558.086-.558.086l.462 2.908H8.487l-.46-3.218a.91.91 0 0 1 .22-.732.941.941 0 0 1 .706-.316h.183c.607 0 1.17.269 1.545.738.373.466.507 1.064.37 1.642zm2.825-1.986a2.448 2.448 0 0 0-.488 2.055 9.668 9.668 0 0 1-1.775 0 2.447 2.447 0 0 0-.707-2.295h3.19a2.538 2.538 0 0 0-.22.24zm.437-.795h-3.625a2.907 2.907 0 0 0-.03-.526h3.686a2.9 2.9 0 0 0-.03.526zm.157-1.082H10.53a5.585 5.585 0 0 0-.362-.892c.458-.543.57-1.222.552-1.814.184.16.39.294.614.4v.31c0 .537.376.989.883 1.113v.285h.564v-.285c.507-.124.883-.576.883-1.112v-.31c.223-.106.428-.24.612-.4-.019.595.095 1.27.553 1.813-.135.269-.265.573-.361.892zm4.103-6.47a.326.326 0 0 0-.009.011l-3.236 4.727-.004.006a7.323 7.323 0 0 0-.191.295c-.424-.676-.3-1.573-.17-2.089.027-.11.07-.248.076-.271.107-.285.165-.593.165-.914v-.022l1.324-1.684c.088.251.282.515.681.71a.285.285 0 0 0 .378-.126.276.276 0 0 0-.128-.372c-.277-.135-.418-.32-.432-.568a.887.887 0 0 1 .061-.356l.217-.275c0-.002.002-.003.003-.004a.79.79 0 0 1 .633-.312.792.792 0 0 1 .75.536.768.768 0 0 1-.118.708zm2.864 2.154h-1.33V3.555h1.33v5.637z"/>
</svg>
