<svg xmlns="http://www.w3.org/2000/svg" width="24" height="24" viewBox="0 0 24 24">
<path d="M7.462 4.914a5.468 5.468 0 0 1 5.167 7.235 9.92 9.92 0 0 1 3.858.969l.312.15v-1.227c0-.244.103-.724.103-.724l.566.164s-.08.372-.08.56v1.512l.061.03a4.17 4.17 0 0 1 1 .676.295.295 0 0 1-.397.435 3.581 3.581 0 0 0-.86-.58l-.961-.465a9.323 9.323 0 0 0-3.84-.918 5.499 5.499 0 0 1-1.843 2.15 36.79 36.79 0 0 0 2.601 1.997c1.953 1.355 3.46 2.051 4.36 2.014 2.212-.093 3.96-1.99 3.978-2.009a.295.295 0 0 1 .436.397c-.077.085-1.934 2.099-4.389 2.201l-.09.002c-2.453 0-7.144-4.033-7.428-4.28a5.429 5.429 0 0 1-2.554.636A5.468 5.468 0 0 1 2 10.377a5.468 5.468 0 0 1 5.462-5.463zM6.706 16.7a.35.35 0 1 1 0 .7.35.35 0 0 1 0-.7zM3.18 15.2c.618.619 1.003.882 2.39 1.345.048.016-.143.573-.172.564-.97-.297-1.616-.505-2.61-1.468l.392-.44zm4.283-9.696a4.878 4.878 0 0 0-4.872 4.873 4.878 4.878 0 0 0 4.872 4.872 4.878 4.878 0 0 0 4.873-4.872 4.878 4.878 0 0 0-4.873-4.873zm0 .862c.85 0 1.751.308 2.348.76l-.345.478c-.604-.398-1.278-.648-2.003-.648a3.424 3.424 0 0 0-3.42 3.42 3.424 3.424 0 0 0 3.42 3.42 3.424 3.424 0 0 0 3.42-3.42c0-.725-.171-1.436-.649-2.005l.478-.346c.498.687.761 1.5.761 2.352a4.015 4.015 0 0 1-4.01 4.01 4.015 4.015 0 0 1-4.01-4.01 4.015 4.015 0 0 1 4.01-4.01zm0 2.316c.935 0 1.695.76 1.695 1.695 0 .934-.76 1.695-1.695 1.695-.934 0-1.695-.76-1.695-1.695s.76-1.695 1.695-1.695zm0 .59a1.106 1.106 0 0 0 0 2.21 1.106 1.106 0 0 0 0-2.21zm14.243-4.358a.295.295 0 1 1 0 .59 2.452 2.452 0 0 0-2.45 2.45v1.48a2.66 2.66 0 0 1 .156-.005h.063v.59h-.063c-.745-.022-1.238.348-1.41.574l-.412-.423c.185-.258.676-.514 1.077-.633V7.953a3.042 3.042 0 0 1 3.039-3.039zm-9.603.167c2.2 1.71 2.4 3.252 2.4 5.296h-.589c-.145-2.624-.561-3.416-2.2-4.853l.39-.443zm-1.106-.9a.35.35 0 1 1 0 .7.35.35 0 0 1 0-.7z"/>
</svg>
