<svg xmlns="http://www.w3.org/2000/svg" width="24" height="24" viewBox="0 0 24 24">
<path d="M9.097 2v1.613a2.906 2.906 0 0 1-1.955 2.74c.179.159.33.349.443.568.317-.097.65-.107.969-.034a1.927 1.927 0 0 1 1.833-1.339c.284 0 .56.063.813.184a1.933 1.933 0 0 1 1.768-1.151c1.067 0 1.935.868 1.935 1.935.284 0 .56.063.813.184a1.933 1.933 0 0 1 3.677.461h.026c1.068 0 1.936.868 1.936 1.936H22v1.613c0 3.599-2.376 6.738-5.806 7.742 0 1.99-3.118 3.548-7.097 3.548C5.117 22 2 20.441 2 18.452c0-1.276 1.309-2.422 3.449-3.051a8.08 8.08 0 0 1-1.514-4.691V9.097h.497a1.926 1.926 0 0 1 .034-2.618A2.905 2.905 0 0 1 2 3.613V3.29h1.613c.937 0 1.769.448 2.3 1.14A2.905 2.905 0 0 1 8.774 2h.323zm3.034 13.903a2.229 2.229 0 0 0-1.71.269c-.354.222-.825.344-1.324.344-.5 0-.97-.122-1.326-.344a2.222 2.222 0 0 0-1.709-.27c-2.076.513-3.417 1.513-3.417 2.55 0 .695.58 1.343 1.526 1.85.688-.68 1.055-1.317 1.055-1.85h.645c0 .668-.362 1.386-1.076 2.138a9.07 9.07 0 0 0 1.18.388c.635-.49 1.831-1.546 1.831-2.526h.646c0 1.034-.89 2.028-1.669 2.699.419.075.857.13 1.31.163.892-.6 2.294-1.815 2.294-2.862h.645c0 1.15-1.1 2.249-1.91 2.902.568 0 1.119-.04 1.647-.106 1.075-.748 2.199-1.86 2.199-2.796h.645c0 .964-.76 1.884-1.5 2.553 2.025-.496 3.435-1.466 3.435-2.553 0-1.037-1.34-2.037-3.417-2.55zm-8.518 2.226a.323.323 0 1 1 0 .645.323.323 0 0 1 0-.645zm5.806-.323a.323.323 0 1 1 0 .646.323.323 0 0 1 0-.646zm11.922-6.774H4.595a7.429 7.429 0 0 0 1.533 4.202 2.878 2.878 0 0 1 1.986.39c.5.314 1.465.314 1.966 0a2.876 2.876 0 0 1 2.205-.348c2.024.499 3.4 1.437 3.791 2.532a7.402 7.402 0 0 0 5.265-6.776zm-8.05 6.13a.323.323 0 1 1 0 .644.323.323 0 0 1 0-.645zm-5.485 0a.323.323 0 1 1 0 .644.323.323 0 0 1 0-.645zm-2.258-.323a.323.323 0 1 1 0 .645.323.323 0 0 1 0-.645zm5.807-.323a.323.323 0 1 1 0 .645.323.323 0 0 1 0-.645zm8.647-4.882l.639.087a7.434 7.434 0 0 1-2.292 4.411l-.44-.472a6.787 6.787 0 0 0 2.093-4.026zm1.353-1.892H4.58v.645h16.774v-.645zm-8.387-4.516c-.622 0-1.154.444-1.267 1.057l-.096.529-.421-.334a1.273 1.273 0 0 0-2.072.864l-.048.442-.405-.183a1.248 1.248 0 0 0-1.107.026L7.21 7.8l-.112-.367a1.28 1.28 0 0 0-1.227-.917c-.712 0-1.29.579-1.29 1.29 0 .712.578 1.29 1.29 1.29H20.71a1.292 1.292 0 0 0-1.551-1.263l-.394.081.011-.46c-.002-.682-.58-1.26-1.292-1.26-.622 0-1.154.444-1.267 1.057l-.096.529-.421-.335a1.273 1.273 0 0 0-.797-.284c-.09 0-.187.013-.295.038l-.507.119.12-.507c.024-.108.037-.205.037-.295 0-.711-.579-1.29-1.29-1.29zm-9.355-1.29h-.945A2.262 2.262 0 0 0 4.903 5.87h.945a2.262 2.262 0 0 0-2.235-1.936zm4.839-1.268a2.262 2.262 0 0 0-1.936 2.235v.945a2.262 2.262 0 0 0 1.936-2.235z"/>
</svg>
