<svg xmlns="http://www.w3.org/2000/svg" width="24" height="24" viewBox="0 0 24 24">
<path d="M8.531 18.3c.003.003.003.7 0 .7h3.47v-.7zm8.649-.594v.7h3.468v-.7H17.18zm-1.77 0a.351.351 0 0 0-.352.35.351.351 0 0 0 .704 0 .351.351 0 0 0-.352-.35zM3.353 16.9c.004 0 .002.423 0 .61v.09h3.469v-.7zM6.397 5l-1.76 4.699-1.278 2.203-.236.406a.904.904 0 0 0 .335 1.242l5.682 3.264a.35.35 0 0 0 .077.032l1.23.362a.352.352 0 0 0 .404-.16l.526-.907a.35.35 0 0 0 .042-.11l.125-.663a1.813 1.813 0 0 0-.883-1.907l-.467-.267a1.133 1.133 0 0 1-.326-.283l-1.629-2.107 1.872-4.176-.642-.285-1.857 4.143a4.688 4.688 0 0 1-1.883-.598l-.34-.195 1.667-4.449L6.397 5zm-2.605 7.554l5.888 3.382a.363.363 0 0 0 .082.034l.78.214-.16.275-.926-.272-5.647-3.242a.21.21 0 0 1-.077-.288l.06-.103zm11.44-6.089l-.3 5.05a4.693 4.693 0 0 1-1.968.435h-.337V6.486c0 .02-.703-.02-.703 0v9.416c0 .193.157.35.351.35H19.4a.357.357 0 0 0 .083-.01l1.248-.3a.35.35 0 0 0 .269-.34v-1.045a.348.348 0 0 0-.02-.116l-.225-.637a1.827 1.827 0 0 0-1.723-1.212h-.541a1.121 1.121 0 0 1-.423-.083l-2.431-.998.297-5.005-.702-.04zm5.065 8.544v.318l-.938.225h-6.732v-.33h6.8c.03 0 .059-.003.088-.01l.782-.203zM5.085 10.326l.293.167a5.398 5.398 0 0 0 2.274.699l.072.093.464.6.218.282.753.974.554.577c.042.029.085.056.13.082l.467.267c.412.236.63.707.543 1.172l-.055.29-.805-.221-5.85-3.36.942-1.622zm10.2 1.797l.11.045.703.289.33.135.704.29.439.18.769.223c.05.005.1.007.154.007h.54c.475 0 .9.298 1.058.744l.098.278-.809.21h-6.754v-1.875h.337c.8 0 1.6-.182 2.321-.526z"/>
</svg>
