<svg xmlns="http://www.w3.org/2000/svg" width="24" height="24" viewBox="0 0 24 24">
<path d="M20.4 3a2.11 2.11 0 0 1 2.095 1.966l.005.152v1.22c0 .698-.341 1.347-.905 1.74l-.145.093v10.872c0 .585-.47 1.06-1.05 1.06-.541 0-.987-.414-1.044-.944l-.006-.116v-2.851C18.091 19.022 15.27 21 12 21c-3.171 0-5.92-1.86-7.231-4.553l-.119-.255v2.851c0 .585-.47 1.06-1.05 1.06-.541 0-.987-.414-1.044-.944l-.006-.116V8.17a2.12 2.12 0 0 1-1.043-1.66L1.5 6.337V3.514h.7v2.823c0 .78.627 1.412 1.4 1.412.728 0 1.326-.56 1.394-1.276L5 6.337V3.514h.7v2.823c0 .698-.342 1.347-.905 1.74l-.145.093v1.403C5.909 6.742 8.73 4.765 12 4.765c3.171 0 5.92 1.859 7.231 4.553l.119.255V8.17a2.12 2.12 0 0 1-1.043-1.66l-.007-.174v-1.22A2.111 2.111 0 0 1 20.4 3zM12 5.47c-4.053 0-7.35 3.325-7.35 7.412s3.297 7.412 7.35 7.412c4.053 0 7.35-3.325 7.35-7.412S16.053 5.471 12 5.471zM3.95 8.426a2.06 2.06 0 0 1-.525.023l-.175-.023v10.618c0 .195.157.353.35.353a.35.35 0 0 0 .343-.281l.007-.072V8.425zm16.45-4.72c-.728 0-1.326.56-1.394 1.277L19 5.118v1.22c0 .56.33 1.069.84 1.293a.352.352 0 0 1 .2.242l.01.082v11.088c0 .195.157.353.35.353a.35.35 0 0 0 .343-.282l.007-.07V7.953c0-.14.082-.266.21-.323.468-.206.784-.65.833-1.155l.007-.139v-1.22c0-.779-.627-1.411-1.4-1.411zM12 6.883c3.28 0 5.95 2.692 5.95 6 0 3.309-2.67 6-5.95 6-3.28 0-5.95-2.691-5.95-6 0-3.308 2.67-6 5.95-6zm0 .706c-2.9 0-5.25 2.37-5.25 5.294 0 2.924 2.35 5.294 5.25 5.294 2.898-.003 5.247-2.371 5.25-5.294 0-2.924-2.35-5.294-5.25-5.294zm2.045 3.546l.56.566-2.224 2.387.023.024-.453.438-.108.116-.006-.007-.006.007-.262-.277-.287-.289.006-.007-1.43-1.505.573-.554 1.4 1.476 2.214-2.375zm.942-.954c.274 0 .496.224.496.5s-.222.5-.496.5a.498.498 0 0 1-.495-.5c0-.276.222-.5.495-.5zM3.25 3.514V5.63a.351.351 0 0 1-.35.353.351.351 0 0 1-.35-.353V3.514h.7zm1.4 0V5.63a.351.351 0 0 1-.35.353.351.351 0 0 1-.35-.353V3.514h.7z"/>
</svg>
