<svg xmlns="http://www.w3.org/2000/svg" width="24" height="24" viewBox="0 0 24 24">
<path d="M21.707 2c.162 0 .293.131.293.293v19.414a.293.293 0 0 1-.293.293H2.293A.293.293 0 0 1 2 21.707V2.293C2 2.131 2.131 2 2.293 2zm-.293.586H2.586v18.828h18.828V2.586zm-.879.586c.162 0 .293.131.293.293v17.07a.293.293 0 0 1-.293.293H3.465a.293.293 0 0 1-.293-.293V6.395a.293.293 0 1 1 .586 0v13.847h16.484V3.758H3.758v1.465a.293.293 0 1 1-.586 0V3.465c0-.162.131-.293.293-.293zM13.29 6.414a1.077 1.077 0 0 1 1.074 1.074v5.783c.385.167.645.549.645.985 0 .436-.26.818-.645.985v1.27a1.075 1.075 0 0 1-2.148 0V15.33h-2.149c-.37 0-.71-.187-.908-.5a1.069 1.069 0 0 1-.061-1.036l3.222-6.768a1.08 1.08 0 0 1 .97-.612zm0 .586a.49.49 0 0 0-.44.278l-3.223 6.768a.486.486 0 0 0 .44.698h2.442c.162 0 .293.131.293.293v1.475a.489.489 0 0 0 .976 0v-1.487c0-.142.102-.264.242-.288a.487.487 0 0 0 0-.962.293.293 0 0 1-.242-.288V7.488A.486.486 0 0 0 13.29 7zm-.783 3.653l.066.007c.134.03.229.15.229.286v2.529a.293.293 0 0 1-.293.293h-1.204a.293.293 0 0 1-.265-.42l1.204-2.528a.293.293 0 0 1 .33-.16zm-.291 1.59l-.447.939h.447v-.94z"/>
</svg>
