<svg xmlns="http://www.w3.org/2000/svg" width="24" height="24" viewBox="0 0 24 24">
  <path d="M8.486 2c.224 0 .406.18.406.4v.935c0 .221-.182.4-.406.4h-.09v.502l2.949-1.935c.184-.121.423-.121.607 0l5.783 3.795c.144.094.183.286.087.427-.095.142-.29.18-.433.087l-5.74-3.767L1.824 9.29c-.126.083-.198.216-.198.365 0 .15.072.283.198.366.15.098.343.098.493 0l9.028-5.925c.144-.094.322-.115.48-.06l.019.005.002.001.035.015.004.002.032.016.006.004.03.017.039.026 7.546 4.952 1.442.947c.15.098.343.098.493 0 .126-.083.199-.216.199-.366s-.073-.283-.199-.365l-2.466-1.619c-.144-.094-.183-.286-.087-.427.095-.142.29-.18.433-.086l2.466 1.618c.3.196.478.525.478.88 0 .353-.178.682-.478.878-.18.119-.386.178-.592.178-.207 0-.413-.06-.593-.178l-.957-.627v2.118c1.944.755 3.323 2.626 3.323 4.808C23 19.683 20.65 22 17.764 22c-1.406 0-2.684-.55-3.625-1.441H2.333c-.479 0-.868-.384-.868-.857 0-.472.39-.856.868-.856H3.62v-1.561c0-.17.14-.309.313-.309.172 0 .313.138.313.309v1.561h1.25v-7.183c0-.358.295-.65.658-.65h4.586c.364 0 .659.292.659.65v7.183h1.54c-.059-.139-.112-.28-.159-.425l-.019-.059v-.001c-.14-.443-.22-.912-.232-1.396l-.002-.13c0-.357.037-.704.107-1.04.489-2.352 2.603-4.126 5.13-4.126h.007c.048 0 .095 0 .142.002l.053.002.097.005.062.003.088.007.064.006.088.01.061.006.135.019.079.013.063.01.086.017.052.01.093.02.035.008.083.02v-2.33L11.649 4.64 4.246 9.497v5.854c0 .17-.14.309-.313.309s-.313-.139-.313-.309V9.908l-.957.627c-.36.237-.825.237-1.185 0-.3-.196-.478-.525-.478-.879s.179-.683.478-.88l3.795-2.49v-2.55h-.09c-.224 0-.406-.18-.406-.401v-.934c0-.221.182-.401.406-.401zm9.28 10.286c-2.227 0-4.089 1.562-4.52 3.633-.06.296-.093.602-.093.915 0 .045 0 .089.002.133l.001.034.005.103.002.03.01.117v.014c.028.28.08.556.159.826l.005.017.03.099.02.059.016.048c.624 1.784 2.343 3.069 4.36 3.069 2.543 0 4.611-2.04 4.611-4.549 0-2.026-1.35-3.747-3.21-4.333l-.038-.012-.09-.027-.08-.022c-.036-.01-.073-.018-.11-.027l-.088-.02-.065-.014c-.046-.01-.093-.018-.139-.026l-.059-.01c-.049-.007-.098-.015-.148-.02l-.038-.005-.136-.014-.04-.003c-.053-.005-.107-.008-.16-.01l-.04-.002c-.055-.002-.11-.003-.167-.003zm-4.51 7.177H2.332c-.134 0-.243.108-.243.24 0 .131.109.239.243.239H13.58c-.117-.154-.226-.313-.325-.479zm6.978-5.224c.232-.009.453.073.623.229.17.156.268.368.276.596.008.23-.074.447-.232.615l-3.284 3.479c-.164.173-.396.273-.636.273-.244 0-.476-.102-.64-.277l-1.449-1.555c-.324-.348-.3-.891.052-1.211.353-.32.903-.297 1.227.05l.814.874 2.644-2.8c.158-.168.373-.265.605-.273zM10.74 11.63H6.154c-.018 0-.033.015-.033.033v7.183h4.652v-7.183c0-.018-.014-.033-.033-.033zm9.516 3.225c-.065.003-.125.03-.169.077l-2.874 3.045c-.06.063-.143.098-.23.098-.088 0-.17-.036-.23-.1l-1.042-1.119c-.048-.05-.114-.077-.18-.077-.058 0-.117.02-.164.063-.098.09-.105.242-.014.339l1.449 1.555c.046.05.11.078.178.078l.067-.01c.042-.011.081-.034.112-.067l3.284-3.479c.044-.047.067-.108.065-.172-.002-.064-.03-.123-.077-.167-.048-.043-.11-.066-.175-.064zm-10.434-.404c.172 0 .312.138.312.307v.636c0 .17-.14.307-.312.307s-.311-.138-.311-.307v-.636c0-.17.14-.307.311-.307zM7.771 3.736H5.898v2.14l1.873-1.229v-.911zm.495-1.119H5.403v.502h2.863v-.502z"/>
</svg>
