<svg xmlns="http://www.w3.org/2000/svg" width="24" height="24" viewBox="0 0 24 24">
<path d="M5.126 8.95c.2 0 .386.08.52.222l.064.076.057.094.595 1.185.001.01.015.008.513.071.442.095.27.069c.442.124.627.224.688.407a.73.73 0 0 1-.045.556l-.06.1-.073.084-.961.944v.017l.234 1.316a.697.697 0 0 1-.277.688.72.72 0 0 1-.542.13l-.114-.028-.103-.044-1.181-.61-.002-.007-.016.003-1.184.629a.724.724 0 0 1-.76-.05.7.7 0 0 1-.289-.478l-.006-.098.01-.108.219-1.327-.007-.014-.967-.927a.695.695 0 0 1-.184-.717.705.705 0 0 1 .384-.429l.095-.035.096-.021 1.314-.197.008.003.014-.015.587-1.203a.711.711 0 0 1 .542-.391l.103-.008zm-.003.684l-.008.01-.586 1.202a.708.708 0 0 1-.318.32l-.109.045-.11.026-1.327.2-.007.003-.006.019.008.016.966.927a.7.7 0 0 1 .208.395l.009.115-.01.11-.218 1.318v.014l.01.012.006-.002 1.184-.63a.723.723 0 0 1 .452-.074l.115.027.105.044 1.195.616.012-.005v-.021l-.235-1.316a.694.694 0 0 1 .066-.44l.061-.098.073-.083.923-.908-.121-.035-.2-.05-.293-.063-.178-.034-.511-.071a.718.718 0 0 1-.407-.201l-.077-.089-.057-.095-.607-1.202-.008-.002zm6.864-.684c.2 0 .387.08.521.222l.063.076.057.094.596 1.185v.01l.015.008.514.071.441.095.27.069c.443.124.628.224.69.407a.73.73 0 0 1-.046.556l-.061.1-.072.084-.962.944v.017l.235 1.316a.697.697 0 0 1-.278.688.72.72 0 0 1-.541.13l-.114-.028-.104-.044-1.18-.61-.003-.007-.015.003-1.184.629a.724.724 0 0 1-.76-.05.7.7 0 0 1-.29-.478l-.005-.098.009-.108.22-1.328-.008-.013-.967-.927a.695.695 0 0 1-.183-.717.705.705 0 0 1 .383-.429l.095-.035.096-.021 1.315-.197.008.003.014-.015.587-1.203a.711.711 0 0 1 .541-.391l.103-.008zm7 0c.2 0 .387.08.521.222l.063.076.057.094.596 1.185v.01l.015.008.514.071.441.095.27.069c.443.124.628.224.69.407a.73.73 0 0 1-.046.556l-.061.1-.072.084-.962.944v.017l.235 1.316a.697.697 0 0 1-.278.688.72.72 0 0 1-.541.13l-.114-.028-.104-.044-1.18-.61-.003-.007-.015.003-1.184.629a.724.724 0 0 1-.76-.05.7.7 0 0 1-.29-.478l-.005-.098.009-.108.22-1.328-.008-.013-.967-.927a.695.695 0 0 1-.183-.717.705.705 0 0 1 .383-.429l.095-.035.096-.021 1.315-.197.008.003.014-.015.587-1.203a.711.711 0 0 1 .541-.391l.103-.008zm-7.003.684l-.007.01-.587 1.202a.708.708 0 0 1-.317.32l-.11.045-.11.026-1.326.2-.007.003-.007.019.008.016.967.927a.7.7 0 0 1 .207.395l.01.115-.01.11-.219 1.318v.014l.01.012.006-.002 1.185-.63a.723.723 0 0 1 .451-.074l.116.027.104.044 1.196.616.01-.007.002-.019-.235-1.316a.694.694 0 0 1 .066-.44l.06-.098.073-.083.924-.907-.121-.036-.2-.05-.293-.063-.178-.034-.511-.071a.718.718 0 0 1-.408-.201l-.076-.089-.058-.095-.606-1.202-.009-.002zm7 0l-.007.01-.587 1.202a.708.708 0 0 1-.317.32l-.11.045-.11.026-1.326.2-.007.003-.007.019.008.016.967.927a.7.7 0 0 1 .207.395l.01.115-.01.11-.219 1.318v.014l.01.012.006-.002 1.185-.63a.723.723 0 0 1 .451-.074l.116.027.104.044 1.196.616.01-.007.002-.019-.235-1.316a.694.694 0 0 1 .066-.44l.06-.098.073-.083.924-.907-.121-.036-.2-.05-.293-.063-.178-.034-.511-.071a.718.718 0 0 1-.408-.201l-.076-.089-.058-.095-.606-1.202-.009-.002z"/>
</svg>
