<svg xmlns="http://www.w3.org/2000/svg" width="24" height="24" viewBox="0 0 24 24">
<path d="M19.9 15.415c-.084-.287-.343-.32-.644-.516a.24.24 0 0 1-.113-.137l-.158-.494c-.012 0-.553.178-.553.178l.159.494c.064.199.2.365.382.466l.016.01h-.455a.411.411 0 0 1-.192-.207l-1.65-3.956a.34.34 0 1 1 .645-.216l.677 2.108s.54-.177.553-.177l-.235-.731c.392-.246.69-.57.89-.967a1.775 1.775 0 0 0 1.734-.486l.252-.263a1.772 1.772 0 0 0-.618-2.867.893.893 0 1 0-1.639.167 1.786 1.786 0 0 0-.3.251l-.252.263a1.76 1.76 0 0 0-.431.763 6.549 6.549 0 0 0-3.91.447l-2.28 1.095a2.288 2.288 0 0 0-.8-.315L4.723 8.953l-.96-.346a.634.634 0 0 0-.759.308l-.81 1.551-.003.004c-.29.575.416 1.15.922.74.66-.534.835-.688 1.047-.82a.114.114 0 0 1 .106-.007L7.3 11.74l-3.177 1.126-.999.214a.634.634 0 0 0-.482.662l.127 1.675a.805.805 0 0 0 .036 1.608h18.204a.806.806 0 0 0 0-1.61H19.9zm.636-5.033c-.22.23-.515.36-.833.367-.317.008-.62-.11-.849-.33a1.18 1.18 0 0 1-.35-.664l.937-.079a.78.78 0 0 0 .498-.238.2.2 0 0 1 .284-.006l.635.608a1.198 1.198 0 0 1-.07.08l-.252.262zm-.52-2.853a1.741 1.741 0 0 0-.53.053.313.313 0 0 1 .53-.053zm-1.198 1.208l.252-.263a1.19 1.19 0 0 1 2.035.998l-.48-.46a.78.78 0 0 0-1.105.024.2.2 0 0 1-.128.062l-.839.07c.055-.159.145-.306.265-.431zm-4.512 1.333a5.942 5.942 0 0 1 3.605-.392 1.757 1.757 0 0 0 .781 1.352c-.13.25-.312.46-.544.631l-.258-.801a.92.92 0 1 0-1.741.599l.266.638-.998.047c-1.1.052-1.904.202-2.985.476l-.344-1.485 2.218-1.065zm-11.558.688c-.02.016-.048-.004-.038-.025l.81-1.549a.053.053 0 0 1 .057-.027l.711.256-.111.381a.696.696 0 0 0-.322.103c-.251.156-.423.31-1.107.861zm1.986-.802l.112-.382 5.292 1.161-2.045.724-3.359-1.503zm5.621 1.318c.652-.229 1.008-.063 1.157-.05l.35 1.506-4.821.658.087.563c.965-.082 4.957-.67 5.072-.684a1.35 1.35 0 0 0 .17-.033c1.15-.297 1.955-.458 3.074-.51l1.209-.057 1.146 2.748H4.022c.202-.579.273-.81.382-1.03a.114.114 0 0 1 .086-.064l1.276-.174-.078-.575-1.027.14-.107-.383 5.801-2.055zm-6.36 2.213l.107.382a.695.695 0 0 0-.218.258c-.132.267-.2.495-.476 1.288h-.057L3.22 13.7a.053.053 0 0 1 .036-.054l.739-.158zm17.014 2.957H2.805a.225.225 0 0 1 0-.448h18.204a.225.225 0 0 1 0 .448z"/>
</svg>
