<svg xmlns="http://www.w3.org/2000/svg" width="24" height="24" viewBox="0 0 24 24">
<path fill="var(--icon-default-outer-fill)" d="M12.6 0a3.122 3.122 0 0 1 3.12 3.12 2.123 2.123 0 0 1-2.121 2.12h-2.506l-.988 4.94a5.39 5.39 0 0 1 4.866-2.695c1.45.055 2.799.756 3.678 1.91a2.926 2.926 0 0 1 4.37-.338 3.01 3.01 0 0 1 .934 2.171h-1.497c0-.028 0-.055-.002-.083a1.497 1.497 0 0 0-1.576-1.414 1.523 1.523 0 0 0-1.283.972c.213.347.388.665.524.915a11.631 11.631 0 0 0 2.776 2.746l-.877 1.214c-.098-.071-2.39-1.742-3.213-3.243-.906-1.657-2.07-3.353-3.834-3.353-2.48 0-3.35 1.516-4.112 2.855l-.317.554-2.233-.843 1.557-7.805h3.733c.344 0 .623-.28.623-.624 0-.895-.726-1.621-1.622-1.622H9.362L1.817 11.784a1.647 1.647 0 0 0-.027 1.914 14.852 14.852 0 0 0 9.544 5.771c4.782.69 7.287-.677 8.493-1.331l.321-.173h1.56v5.988H20.21v-4.321c-1.454.77-4.213 2.013-9.09 1.32A16.285 16.285 0 0 1 .56 14.554 3.148 3.148 0 0 1 .609 10.9L8.603 0zm5.8 15.507l.715 1.316a10.139 10.139 0 0 1-5.267 1.337v-1.497a8.643 8.643 0 0 0 4.553-1.156zm-8.182.663c.448.132.903.236 1.363.31l-.235 1.477a12.098 12.098 0 0 1-1.554-.353zm-5.745-3.883a12.24 12.24 0 0 0 4.433 3.396L8.3 17.052a13.814 13.814 0 0 1-4.994-3.827z"/>
</svg>
