<svg xmlns="http://www.w3.org/2000/svg" width="24" height="24" viewBox="0 0 24 24">
<path d="M10.245 0l1.131.69c-2.007 2.531-1.9 7.116.32 13.753l.136.526v.123l-.682 2.771-.075.126-3.877 3.613v1.091h3.884l2.723-1.905.252-.182-.412-5.16-.001-.034c-.012-.459.011-1.092.096-1.854a17.224 17.224 0 0 1 .99-4.158l.225-.583.581-1.447.124-.326c.09-.246.14-.443.182-.572.492-1.54.196-3.468-.887-5.782l1.28-.581c1.107 2.461 1.47 4.624 1.087 6.486l-.062.2a9.673 9.673 0 0 1-.082.241l-.293.776-.502 1.283c-.093.24-.176.46-.253.67l-.211.592-.092.274c-.547 1.665-.88 3.152-.823 4.513l.02.312.41 5.618a.728.728 0 0 1-.207.476l-.081.072-3.117 2.347a.717.717 0 0 1-.344.143l-.095.006H6.483a.728.728 0 0 1-.72-.628l-.006-.098v-1.898c0-.162.054-.319.152-.445l.081-.09 3.731-3.43.724-2.501-.108-.405C8.082 7.204 8.051 2.33 10.245 0zM12 17.553h1.401l.156 2.172a.73.73 0 0 1-.137.427l-.075.088-1.755 1.145-.832-1.145 1.337-.807-.095-1.88zm2.536-15.44c.598 2.625.355 4.952-.73 6.982l-1.221-.37c.981-1.947 1.198-4.059.65-6.337l1.3-.275z"/>
</svg>
