<svg xmlns="http://www.w3.org/2000/svg" width="24" height="24" viewBox="0 0 24 24">
<path fill="var(--icon-default-outer-fill)" d="M24 0v1.109a3.758 3.758 0 0 1-3.276 3.72L7.245 6.548a6.202 6.202 0 0 0-4.529 3.12 6.863 6.863 0 0 0-.586 5.446l.927 2.953-.26.513A12.04 12.04 0 0 0 1.5 24H0a13.538 13.538 0 0 1 1.443-6.065l-.744-2.37a8.37 8.37 0 0 1 .715-6.64 7.683 7.683 0 0 1 5.63-3.863L20.536 3.34A2.25 2.25 0 0 0 22.5 1.108V0H24zM8.125 13.5a2.372 2.372 0 0 1 2.362 2.25h.013v.125a6.633 6.633 0 0 0 6.625 6.625h4.625V24h-4.625a8.116 8.116 0 0 1-6.625-3.437V24H9v-8.125A.876.876 0 0 0 8.125 15H6.75v-1.5zM18 18v1.5h-1.5V18H18z"/>
</svg>
