<svg xmlns="http://www.w3.org/2000/svg" width="24" height="24" viewBox="0 0 24 24">
    <g fill="none" fill-rule="evenodd">
<g fill="var(--icon-default-fill)">
            <path d="M10.007 2.953a.944.944 0 0 0-.94-.94.944.944 0 0 0-.939.94v15.661l-3.476-3.919c-.375-.374-.939-.424-1.314-.094-.374.374-.424.939-.094 1.313l5.12 5.73a.87.87 0 0 0 1.363 0l.28-18.691zM21.05 8.081l-4.894-5.729c-.452-.456-1.016-.483-1.409 0l-.28 18.646c0 .514.425.939.94.939.514 0 .938-.375.938-.894V5.386l3.477 3.919c.374.375.939.424 1.313.095.375-.38.244-.944-.085-1.319z"/>
        </g>
    </g>
</svg>
