<svg xmlns="http://www.w3.org/2000/svg" width="24" height="24" viewBox="0 0 24 24">
    <g fill="none" fill-rule="evenodd">
        <path fill="#AFBEC5" d="M11.371 13.577a3.672 3.672 0 0 0-3.668-3.668 3.672 3.672 0 0 0-3.668 3.668c0 .593.142 1.153.393 1.649l3.275 6.755 3.277-6.756c.25-.496.391-1.056.391-1.648zm-3.668 2.03c-1.119 0-2.03-.91-2.03-2.03 0-1.12.911-2.03 2.03-2.03 1.12 0 2.03.91 2.03 2.03 0 1.12-.91 2.03-2.03 2.03zM18.097 2a1.86 1.86 0 0 0-1.66 2.692l1.66 3.42 1.659-3.42A1.86 1.86 0 0 0 18.097 2zm0 2.885a1.029 1.029 0 0 1 0-2.056 1.029 1.029 0 0 1 0 2.056z"/>
        <path fill="#CFD8DD" d="M16.479 14.05a7.876 7.876 0 0 0-.297-1.043c-.165-.457-.363-.904-.515-1.366-.284-.863.206-1.584.298-1.715.161-.23.35-.44.548-.637.383-.38.805-.719 1.247-1.031A6.198 6.198 0 0 1 17.602 8c-.636.249-3.903 1.39-3.823 3.913.016.506.211.987.332 1.478a6.4 6.4 0 0 1 .139.715c.013.11.021.218.03.328v-.002c0 .003.008.346-.007.495-.048.465-.116.935-.313 1.362a2.803 2.803 0 0 1-.798 1.014c-.778.624-1.809.873-2.782.973a7.842 7.842 0 0 1-.139.013l-1.737 3.583a14.39 14.39 0 0 0 2.546-.376c.982-.242 1.938-.607 2.796-1.148.856-.54 1.592-1.271 2.083-2.161.513-.931.718-1.998.674-3.054a6.521 6.521 0 0 0-.124-1.084z"/>
    </g>
</svg>
