<svg xmlns="http://www.w3.org/2000/svg" width="24" height="24" viewBox="0 0 24 24">
    <g fill="none" fill-rule="evenodd">
        <path d="M0 0h24v24H0z"/>
        <path fill="#4868AD" fill-rule="nonzero" d="M20.125 2H3.875A1.88 1.88 0 0 0 2 3.875v16.25A1.88 1.88 0 0 0 3.875 22h8.75v-8.125h-2.188V10.75h2.188V9.187c.05-1.751.504-3.31 3.475-3.437h2.462v3.098h-2.081a.984.984 0 0 0-1.044.964v.938h3.126l-.534 3.125h-2.591V22h4.687A1.88 1.88 0 0 0 22 20.125V3.875A1.88 1.88 0 0 0 20.125 2z"/>
    </g>
</svg>
