<svg xmlns="http://www.w3.org/2000/svg" width="24" height="24" viewBox="0 0 24 24">
    <path d="M3.837 11.789A36.681 36.681 0 0 0 2.007 24H3.54a34.99 34.99 0 0 1 1.77-11.788l.045-.15.916 1.434a4.836 4.836 0 0 0 1.788 1.654c.459.247.956.42 1.471.508l-1.385 7.458 1.507.268 1.5-8.078c2.25-3.152 7.502-4.306 9.77-4.666.09.257.178.527.262.816 1.419 4.86-2.92 11.313-2.964 11.378l1.274.832c.196-.287 4.773-7.102 3.164-12.622a14.428 14.428 0 0 0-2.77-5.26A7.892 7.892 0 0 1 17.863 0h-1.532a9.145 9.145 0 0 0 2.103 6.388c-2.114.3-4.159.956-6.043 1.94-2.859 1.404-4.743.369-5.865-.868.438-2.463.643-4.96.613-7.46H5.608c.09 3.999-.51 7.984-1.771 11.789zm3.732.91l-1.654-2.59c.082-.304.165-.616.241-.936A5.762 5.762 0 0 0 9.81 10.5a7.4 7.4 0 0 0 3.264-.829c3.593-1.76 5.801-1.857 6.423-1.842.305.443.58.905.82 1.385-2.576.44-7.721 1.701-10.264 5.016A3.422 3.422 0 0 1 7.57 12.7zM11.197 4.5H9.665V6h1.532V4.5z"/>
</svg>
