<svg xmlns="http://www.w3.org/2000/svg" width="24" height="24" viewBox="0 0 24 24">
    <defs>
        <linearGradient id="a" x1="50%" x2="50%" y1="99.709%" y2=".777%">
            <stop offset="0%" stop-color="#E09B3D"/>
            <stop offset="30%" stop-color="#C74C4D"/>
            <stop offset="60%" stop-color="#C21975"/>
            <stop offset="100%" stop-color="#7024C4"/>
        </linearGradient>
        <linearGradient id="b" x1="50%" x2="50%" y1="146.099%" y2="-45.16%">
            <stop offset="0%" stop-color="#E09B3D"/>
            <stop offset="30%" stop-color="#C74C4D"/>
            <stop offset="60%" stop-color="#C21975"/>
            <stop offset="100%" stop-color="#7024C4"/>
        </linearGradient>
        <linearGradient id="c" x1="50%" x2="50%" y1="658.141%" y2="-140.029%">
            <stop offset="0%" stop-color="#E09B3D"/>
            <stop offset="30%" stop-color="#C74C4D"/>
            <stop offset="60%" stop-color="#C21975"/>
            <stop offset="100%" stop-color="#7024C4"/>
        </linearGradient>
    </defs>
    <g fill="none" fill-rule="evenodd">
        <path d="M0 0h24v24H0z"/>
        <path fill="url(#a)" fill-rule="nonzero" d="M16.017 2h-8.07A5.954 5.954 0 0 0 2 7.948v8.07a5.954 5.954 0 0 0 5.948 5.947h8.07a5.954 5.954 0 0 0 5.947-5.948v-8.07A5.954 5.954 0 0 0 16.017 2zm3.94 14.017a3.94 3.94 0 0 1-3.94 3.94h-8.07a3.94 3.94 0 0 1-3.939-3.94v-8.07a3.94 3.94 0 0 1 3.94-3.939h8.07a3.94 3.94 0 0 1 3.939 3.94v8.07z"/>
        <path fill="url(#b)" fill-rule="nonzero" d="M11.982 6.819a5.17 5.17 0 0 0-5.163 5.163 5.17 5.17 0 0 0 5.163 5.164 5.17 5.17 0 0 0 5.164-5.164 5.17 5.17 0 0 0-5.164-5.163zm0 8.319a3.155 3.155 0 1 1 0-6.31 3.155 3.155 0 0 1 0 6.31z"/>
        <circle cx="17.156" cy="6.858" r="1.237" fill="url(#c)" fill-rule="nonzero"/>
    </g>
</svg>
