<svg xmlns="http://www.w3.org/2000/svg" width="24" height="24" viewBox="0 0 24 24">
    <g fill="none" fill-rule="evenodd">
        <path d="M0 0h24v24H0z"/>
        <path fill="#0077B7" fill-rule="nonzero" d="M19.065 2H4.992C3.993 2 2 3.16 2 4.938v14.081C2 20.665 3.993 22 4.992 22h14.073C20.064 22 22 20.41 22 19.019V4.938C22 3.363 20.064 2 19.065 2zM8.189 19.27c0 .29-.236.526-.527.526h-2.24a.526.526 0 0 1-.527-.527V9.875c0-.291.235-.527.526-.527h2.241c.291 0 .527.236.527.527v9.394zM6.542 8.461a2.13 2.13 0 1 1 0-4.258 2.13 2.13 0 0 1 0 4.258zM19.9 19.312a.484.484 0 0 1-.484.484h-2.405a.484.484 0 0 1-.484-.484v-4.407c0-.657.193-2.88-1.718-2.88-1.482 0-1.783 1.521-1.843 2.204v5.083a.484.484 0 0 1-.484.484h-2.326a.484.484 0 0 1-.484-.484v-9.48c0-.267.216-.484.484-.484h2.326c.267 0 .484.217.484.484v.82c.55-.825 1.366-1.462 3.105-1.462 3.851 0 3.829 3.598 3.829 5.575v4.547z"/>
    </g>
</svg>
