<svg xmlns="http://www.w3.org/2000/svg" width="24" height="24" viewBox="0 0 24 24">
<path fill="var(--icon-default-outer-fill)" d="M20.105 20.855v1.49h-4.16l-1.272 1.272-1.053-1.054 1.708-1.708h4.777zm-11.609 0l1.708 1.708-1.053 1.054-1.272-1.272H3.72v-1.49h4.777zm13.445-2.435l1.404.498-.498 1.404-1.404-.498.498-1.404zm-20.055 0l.498 1.403-1.359.482-.498-1.404 1.359-.482zM4.464 0v5.586c0 2.643 3.468 5.103 5.535 6.331a3.737 3.737 0 0 0 3.826 0c2.067-1.228 5.535-3.688 5.535-6.33V0h1.49v5.586c0 1.988-1.306 3.78-2.98 5.262v6.13l2.663.944-.497 1.404-3.655-1.297v-6c-.601.427-1.207.822-1.793 1.172a5.23 5.23 0 0 1-5.352 0 24.663 24.663 0 0 1-1.793-1.173v6.001l-3.655 1.297-.497-1.404 2.662-.944v-6.13C4.28 9.366 2.974 7.574 2.974 5.586V0h1.49z"/>
</svg>
