<svg xmlns="http://www.w3.org/2000/svg" width="24" height="24" viewBox="0 0 24 24">
    <path d="M14.828 18H4.667C4.298 18 4 17.702 4 17.333c0-.379.24-.717.597-.843.41-.145.666-.3.765-.464.213-.344.238-.713.238-.713V10c0-2.474 2.05-4.547 4.8-5.146v-1.52C10.4 2.603 11.125 2 12 2c.875 0 1.6.604 1.6 1.333v1.521c2.75.6 4.8 2.672 4.8 5.146v5.339s.006.364.206.703c.095.158.359.31.79.454.361.12.604.458.604.837 0 .369-.298.667-.667.667h-4.505zm-7.316-2h8.96c-.048-.23-.069-.45-.072-.661V10c0-1.416-1.284-2.769-3.226-3.192L12 6.553l-1.174.255C8.884 7.231 7.6 8.584 7.6 10v5.313l-.005.134c-.011.172-.037.358-.083.553zM15 19c0 1.652-1.348 3-3 3s-3-1.348-3-3h6z"/>
</svg>
