<?xml version="1.0" encoding="utf-8"?>
<svg version="1.1" xmlns="http://www.w3.org/2000/svg" xmlns:xlink="http://www.w3.org/1999/xlink" x="0px" y="0px"
	 viewBox="0 0 24 24" xml:space="preserve">
<path d="M18.2,19.3l-1.2,1.2c-0.4,0.4-1,0.4-1.4,0c-0.4-0.4-0.4-1,0-1.4l1.1-1.1l-1.6-1.6l-1.1,1.1c-0.4,0.4-1,0.4-1.4,0
	c-0.4-0.4-0.4-1,0-1.4l1.1-1.1l-2.5-2.5C10.4,12.8,9.6,13,8.8,13c-2.8,0-5-2.2-5-5s2.2-5,5-5s5,2.2,5,5c0,0.8-0.2,1.6-0.6,2.3
	l6.5,6.5c0.6,0.6,0.6,1.5,0,2.1C19.3,19.4,18.7,19.5,18.2,19.3z M8.8,10c1.1,0,2-0.9,2-2s-0.9-2-2-2s-2,0.9-2,2S7.7,10,8.8,10z"/>
</svg>
