<svg xmlns="http://www.w3.org/2000/svg" width="24" height="24" viewBox="0 0 24 24">
    <g fill="none" fill-rule="evenodd">
        <path d="M0 0h24v24H0z"/>
        <path fill="#CB2027" d="M17 2a5 5 0 0 1 5 5v10a5 5 0 0 1-5 5H7a5 5 0 0 1-5-5V7a5 5 0 0 1 5-5h10zm-.33 7.782c-.336-2.437-2.767-3.678-5.358-3.388-2.048.23-4.09 1.887-4.175 4.254-.053 1.447.358 2.531 1.733 2.836.597-1.053-.192-1.285-.315-2.048-.505-3.122 3.601-5.253 5.75-3.072 1.488 1.51.509 6.154-1.89 5.672-2.297-.462 1.125-4.16-.709-4.884-1.49-.59-2.282 1.804-1.575 2.993-.415 2.045-1.307 3.973-.945 6.538 1.17-.85 1.566-2.477 1.89-4.175.588.358.904.73 1.654.788 2.77.214 4.317-2.764 3.94-5.514z"/>
    </g>
</svg>
