<svg xmlns="http://www.w3.org/2000/svg" width="16" height="16" viewBox="0 0 16 16">
    <path d="M12.644 11.239v.895a.393.393 0 0 1-.393.393H3.75a.393.393 0 0 1-.393-.393v-.895h9.288zM8 4a1.27 1.27 0 0 1 .89 2.171 2.084 2.084 0 0 0 2.034 1.642c.616 0 1.17-.269 1.552-.696a1.27 1.27 0 0 1 .922-2.138c.7 0 1.269.57 1.269 1.269a1.27 1.27 0 0 1-.997 1.239c-.113.93-.33 2.062-.75 2.967H3.08c-.42-.905-.637-2.038-.75-2.967a1.27 1.27 0 0 1-.997-1.24 1.27 1.27 0 1 1 2.191.87c.382.427.936.696 1.552.696.996 0 1.831-.704 2.033-1.642A1.27 1.27 0 0 1 8 4z"/>
</svg>
