<svg xmlns="http://www.w3.org/2000/svg" width="24" height="24" viewBox="0 0 24 24">
    <path d="M19.549-.248c.259.01.437.058.55.22l1.354 2.104c.462.719.752 1.453.752 1.98 0 .814.29 1.997.504 2.958l.046.2.516 2.044c.587 2.376.776 3.983.588 6.191-.219 2.577-1.292 6.372-2.292 8.427a.786.786 0 0 1-.55.362l-.116.009h-5.697a.776.776 0 0 1-.75-.572c.017.06-.224-.317-.361-.635-.222-.514-.362-1.142-.39-1.916l-.006-.297c0-.75-.19-1.673-.548-2.788-.096-.3-.203-.608-.324-.94l-.4-1.048-.464-1.18-.009.02c-.764 1.702-1.511 4.079-1.657 5.491l-.02.24-.006.205c0 .787-.143 1.48-.386 2.101-.129.33-.37.79-.359.745-.08.301-.332.52-.634.565l-.115.009h-5.71a.755.755 0 0 1-.673-.387c-.396-.752-.781-1.988-1.155-3.585a54.09 54.09 0 0 1-.458-2.169l-.234-1.292-.134-.81a10.389 10.389 0 0 1-.184-1.668c-.046-1.41.126-2.75.532-4.695l.51-2.396c.138-.681.181-.992.194-1.312l.005-.197v-.148c0-1.513.213-2.24.804-3.206l.334-.532.226-.392C3.472.378 4.385-.725 3.905-.03c.113-.161.288-.211.537-.22l.271.002L19.55-.248zM2.964 4.332c-.117 1.942-.44 3.735-.966 5.38l-.065.304c-.438 2.072-.573 2.859-.608 3.858l-.008.292a8.95 8.95 0 0 0 .156 1.868c.06.307.111.585.157.85l.087.513c.034.212.121.794.138.906l.09.545c.128.68.325 1.431.748 2.795l.491 1.55h5.157l.075-.104.076-.114c.309-.492.674-1.434.708-2.21.076-1.768.468-3.351 1.17-5.188.149-.388.733-1.821.853-2.143l.084-.233c.183-.524.275-.922.28-1.265l-.003-.117.008-.047-.03-.147-.168-.3c-1.89-3.296-4.923-6.333-8.43-6.993zm17.937-.056l-.48.113c-3.677 1.745-5.138 3.153-7.332 6.281l-.324.458-.342.469-.049.173.009.055-.002.108c.005.378.12.835.348 1.464l.035.093c.175.465.68 1.73.783 1.999l.155.417c.648 1.786.977 3.282.977 4.895 0 .616.155 1.175.428 1.735l.062.127.295.53h5.313l.239-.645c.761-2.138 1.408-4.82 1.66-7.092.133-1.212.028-2.52-.282-4.145-.057-.302-.116-.59-.189-.924l-.344-1.514c-.552-2.397-.96-3.467-.96-4.597zM18.967.806H5l-.126.035-.112.071c-.523.365-.932.856-1.578 2.1 2.307.707 4.123 1.673 5.446 2.898A20.707 20.707 0 0 1 12 9.9c1.55-1.91 2.71-3.189 3.478-3.835 1.142-.96 2.651-1.909 4.53-2.849l.413-.204c-.25-.635-.708-1.494-1.267-2.121l-.187-.084zM2.926 11.163l.038-.243 1.502.15c-.002.059-.057.826-.073 1.015a19.994 19.994 0 0 0 .07 4.11c.057.46.146.882.277 1.327.154.528 1.011 2.765 1.32 3.628l.109.315-1.253.89-.128-.268c-.92-1.923-1.653-4.102-1.862-5.75a21.128 21.128 0 0 1-.078-4.515l.05-.458.028-.201zm18.104-.154c.056.694.089 1.205.098 1.532.026.95 0 1.955-.098 2.967l-.025.214a24.907 24.907 0 0 1-.368 2.045c-.312 1.41-.726 2.74-1.256 3.898l-.205.426-.13.26-1.252-.889.066-.18c.923-2.498 1.35-4.108 1.53-5.878l.042-.465c.115-1.404.123-2.854.086-3.404l-.014-.148-.034-.247 1.56-.13z"/>
</svg>
