<svg xmlns="http://www.w3.org/2000/svg" width="24" height="24" viewBox="0 0 24 24">
    <g fill="none" fill-rule="evenodd">
        <path d="M0 0h24v24H0z"/>
        <path fill="#00C3FF" d="M17 2a5 5 0 0 1 5 5v10a4.98 4.98 0 0 1-.523 2.23 3.642 3.642 0 0 1-2.247 2.247A4.993 4.993 0 0 1 17 22H7a5 5 0 0 1-5-5V7a5 5 0 0 1 5-5h10zm-2.603 4.949a2.578 2.578 0 0 0-2.526 3.094c-.689-.01-3.176-.222-5.238-2.616 0 0-1.147 2.002.782 3.37 0 0-.782-.024-1.197-.317 0 0-.122 1.93 2.1 2.54 0 0-.78.195-1.172.024 0 0 .391 1.661 2.345 1.783 0 0-1.401 1.283-3.69 1.099a7.284 7.284 0 0 0 11.173-6.31l.001-.044v-.045-.063c.744-.495 1.224-1.317 1.224-1.317-.443.232-1.11.339-1.33.37l-.006-.032c.751-.464.981-1.34.981-1.34a4.954 4.954 0 0 1-1.184.496 3.417 3.417 0 0 1-.417.086 2.57 2.57 0 0 0-1.846-.778z"/>
    </g>
</svg>
