<svg xmlns="http://www.w3.org/2000/svg" width="24" height="24" viewBox="0 0 24 24">
<path fill="var(--icon-default-outer-fill)" d="M20.984 12.357l-.34 6.12 2.226 4.453v.92h-1.491v-.569l-2.248-4.49.012-.2.346-6.215 1.495-.02zm-15.59.258l.34 6.12-1.498 4.491v.625h-1.49v-.866l1.483-4.452-.327-5.886 1.491-.032zm7.786 6.764c0 .823.668 1.49 1.49 1.49h2.237v1.491H14.67a2.962 2.962 0 0 1-2.236-1.03 2.962 2.962 0 0 1-2.236 1.03H7.963v-1.49h2.236a1.49 1.49 0 0 0 1.49-1.491zm0-4.472c0 .823.668 1.49 1.49 1.49h2.237v1.491H14.67a2.962 2.962 0 0 1-2.236-1.03 2.962 2.962 0 0 1-2.236 1.03H7.963v-1.49h2.236a1.49 1.49 0 0 0 1.49-1.491zm0-4.472c0 .823.668 1.49 1.49 1.49h2.237v1.491H14.67a2.962 2.962 0 0 1-2.236-1.03 2.962 2.962 0 0 1-2.236 1.03H7.963v-1.49h2.236a1.49 1.49 0 0 0 1.49-1.491zM3.49 0v2.758l1.145 1.714H6.77a4.266 4.266 0 0 0 3.558-1.904l1.24.827A5.754 5.754 0 0 1 6.77 5.963H5.024l.31 5.587-1.49.037-.34-6.125L2 3.205V0h1.49zm19.38 0v3.205l-1.504 2.257-.323 5.82-1.495.022.298-5.341h-1.743a5.754 5.754 0 0 1-4.798-2.568l1.24-.827a4.266 4.266 0 0 0 3.558 1.904h2.132l1.144-1.714V0h1.49zM10.944 7.453v1.491H9.107l-1.27 1.904-1.24-.827L8.31 7.453h2.635zm5.616 0l1.712 2.568-1.24.827-1.27-1.904h-1.837v-1.49h2.635z"/>
</svg>
