<svg xmlns="http://www.w3.org/2000/svg" width="24" height="24" viewBox="0 0 24 24">
<path fill="var(--icon-default-fill)" d="M21.89 0l.151.005A2.112 2.112 0 0 1 24 2.11v19.782C24 23.054 23.054 24 21.89 24H2.11A2.112 2.112 0 0 1 0 21.89V2.11C0 .945.946 0 2.11 0h19.78zm0 1.406H2.11a.704.704 0 0 0-.704.703v19.782c0 .387.316.703.703.703h19.782a.704.704 0 0 0 .703-.703V2.109a.704.704 0 0 0-.703-.703zM12 2.906c2.948 0 5.752.935 8.11 2.703a.703.703 0 0 1 .14.985l-3.712 4.938a.703.703 0 0 1-.984.14A5.88 5.88 0 0 0 12 10.488a5.88 5.88 0 0 0-3.554 1.184.7.7 0 0 1-.984-.14L3.75 6.594a.704.704 0 0 1 .14-.985A13.416 13.416 0 0 1 12 2.906zm0 1.406a12.01 12.01 0 0 0-6.69 2.015l2.874 3.825a7.248 7.248 0 0 1 3.113-1.037V6.972a.703.703 0 1 1 1.406 0v2.143a7.248 7.248 0 0 1 3.113 1.037l2.874-3.825A12.01 12.01 0 0 0 12 4.313z"/>
</svg>
